<svg width="28" height="29" viewBox="0 0 28 29" fill="none" xmlns="http://www.w3.org/2000/svg">
<path d="M13.76 23.26C17.3388 23.26 20.24 19.2932 20.24 14.4C20.24 9.50674 17.3388 5.53998 13.76 5.53998C10.1812 5.53998 7.28 9.50674 7.28 14.4C7.28 19.2932 10.1812 23.26 13.76 23.26Z" fill="#8DC63F"/>
<path d="M10.86 24.81C7.43 23.39 5.18001 19.46 5.18001 14.55C5.18001 10.18 6.93 5.65999 10.86 4.13999V0.0799866C4.6 1.36999 0 6.58999 0 14.72C0 22.56 4.56 27.83 10.86 28.98V24.81Z" fill="#2B3D49"/>
<path d="M16.64 0V4.11C20.64 5.65 22.29 10.48 22.29 14.43C22.29 19.43 20 23.35 16.64 24.78V28.88C22.36 27.67 27.53 23.08 27.53 14.26C27.53 6.63 23.23 1.16 16.64 0Z" fill="#2B3D49"/>
</svg>
